<svg xmlns="http://www.w3.org/2000/svg" version="1.1" width="408.7mm" height="166.7mm" viewBox = " 0 0 1448.150797 590.669777" >
<!-- Front--> 
<g transform="translate(22.5000185, 22.5000185) " > 
<polygon style="stroke:#000000; fill:none; stroke-width:0.000354331" points="15.944894999999999, 0 57.5787875, 0 57.5787875, 15.944894999999999 78.661482, 15.944894999999999 78.661482, 33.661445 73.346517, 33.661445 73.346517, 45.35436800000001 78.661482, 45.35436800000001 78.661482, 57.047291 93.189053, 57.047291 93.189053, 45.35436800000001 98.504018, 45.35436800000001 98.504018, 33.661445 93.189053, 33.661445 93.189053, 15.944894999999999 113.38592, 15.944894999999999 113.38592, 0 149.7048475, 0 149.7048475, 15.944894999999999 184.25212, 15.944894999999999 184.25212, 0 220.5710475, 0 220.5710475, 15.944894999999999 255.11831999999998, 15.944894999999999 255.11831999999998, 0 291.4372475, 0 291.4372475, 15.944894999999999 325.98452, 15.944894999999999 325.98452, 0 362.30344749999995, 0 362.30344749999995, 15.944894999999999 396.85071999999997, 15.944894999999999 396.85071999999997, 0 433.16964749999994, 0 433.16964749999994, 15.944894999999999 454.25234199999994, 15.944894999999999 454.25234199999994, 33.661445 448.9373769999999, 33.661445 448.9373769999999, 45.35436800000001 454.25234199999994, 45.35436800000001 454.25234199999994, 57.047291 468.7799129999999, 57.047291 468.7799129999999, 45.35436800000001 474.09487799999994, 45.35436800000001 474.09487799999994, 33.661445 468.7799129999999, 33.661445 468.7799129999999, 15.944894999999999 488.97677999999996, 15.944894999999999 488.97677999999996, 0 530.6106725, 0 530.6106725, 49.60634 546.5555674999999, 49.60634 546.5555674999999, 67.8543865 533.4453205, 67.8543865 533.4453205, 80.96463350000002 546.5555674999999, 80.96463350000002 546.5555674999999, 100.09850750000001 530.6106725, 100.09850750000001 530.6106725, 134.64578 546.5555674999999, 134.64578 546.5555674999999, 152.8938265 533.4453205, 152.8938265 533.4453205, 166.0040735 546.5555674999999, 166.0040735 546.5555674999999, 185.13794750000002 530.6106725, 185.13794750000002 530.6106725, 234.74428749999998 488.97677999999996, 234.74428749999998 488.97677999999996, 218.79939249999998 468.7799129999999, 218.79939249999998 468.7799129999999, 201.08284249999997 474.09487799999994, 201.08284249999997 474.09487799999994, 189.38991949999996 468.7799129999999, 189.38991949999996 468.7799129999999, 177.69699649999998 454.25234199999994, 177.69699649999998 454.25234199999994, 189.38991949999996 448.9373769999999, 189.38991949999996 448.9373769999999, 201.08284249999997 454.25234199999994, 201.08284249999997 454.25234199999994, 218.79939249999998 433.16964749999994, 218.79939249999998 433.16964749999994, 234.74428749999998 396.85071999999997, 234.74428749999998 396.85071999999997, 218.79939249999998 362.30344749999995, 218.79939249999998 362.30344749999995, 234.74428749999998 325.98452, 234.74428749999998 325.98452, 218.79939249999998 291.4372475, 218.79939249999998 291.4372475, 234.74428749999998 255.11831999999998, 234.74428749999998 255.11831999999998, 218.79939249999998 220.5710475, 218.79939249999998 220.5710475, 234.74428749999998 184.25212, 234.74428749999998 184.25212, 218.79939249999998 149.7048475, 218.79939249999998 149.7048475, 234.74428749999998 113.38592, 234.74428749999998 113.38592, 218.79939249999998 93.189053, 218.79939249999998 93.189053, 201.08284249999997 98.504018, 201.08284249999997 98.504018, 189.38991949999996 93.189053, 189.38991949999996 93.189053, 177.69699649999998 78.661482, 177.69699649999998 78.661482, 189.38991949999996 73.346517, 189.38991949999996 73.346517, 201.08284249999997 78.661482, 201.08284249999997 78.661482, 218.79939249999998 57.5787875, 218.79939249999998 57.5787875, 234.74428749999998 15.944894999999999, 234.7442875 15.944894999999999, 185.13794750000002 0, 185.13794750000002 0, 166.0040735 13.110247000000001, 166.0040735 13.110247000000001, 152.8938265 0, 152.8938265 0, 134.64578 15.944894999999999, 134.64578 15.944894999999999, 100.09850750000001 0, 100.09850750000001 0, 80.96463350000002 13.110247000000001, 80.96463350000002 13.110247000000001, 67.8543865 0, 67.8543865 0, 49.60634 15.944894999999999, 49.60634 "/> 
</g>
<!-- Back--> 
<g transform="translate(569.055586, 22.5000185) " > 
<polygon style="stroke:#000000; fill:none; stroke-width:0.000354331" points="15.944894999999999, 0 57.5787875, 0 57.5787875, 15.944894999999999 78.661482, 15.944894999999999 78.661482, 33.661445 73.346517, 33.661445 73.346517, 45.35436800000001 78.661482, 45.35436800000001 78.661482, 57.047291 93.189053, 57.047291 93.189053, 45.35436800000001 98.504018, 45.35436800000001 98.504018, 33.661445 93.189053, 33.661445 93.189053, 15.944894999999999 113.38592, 15.944894999999999 113.38592, 0 149.7048475, 0 149.7048475, 15.944894999999999 184.25212, 15.944894999999999 184.25212, 0 220.5710475, 0 220.5710475, 15.944894999999999 255.11831999999998, 15.944894999999999 255.11831999999998, 0 291.4372475, 0 291.4372475, 15.944894999999999 325.98452, 15.944894999999999 325.98452, 0 362.30344749999995, 0 362.30344749999995, 15.944894999999999 396.85071999999997, 15.944894999999999 396.85071999999997, 0 433.16964749999994, 0 433.16964749999994, 15.944894999999999 454.25234199999994, 15.944894999999999 454.25234199999994, 33.661445 448.9373769999999, 33.661445 448.9373769999999, 45.35436800000001 454.25234199999994, 45.35436800000001 454.25234199999994, 57.047291 468.7799129999999, 57.047291 468.7799129999999, 45.35436800000001 474.09487799999994, 45.35436800000001 474.09487799999994, 33.661445 468.7799129999999, 33.661445 468.7799129999999, 15.944894999999999 488.97677999999996, 15.944894999999999 488.97677999999996, 0 530.6106725, 0 530.6106725, 49.60634 546.5555674999999, 49.60634 546.5555674999999, 67.8543865 533.4453205, 67.8543865 533.4453205, 80.96463350000002 546.5555674999999, 80.96463350000002 546.5555674999999, 100.09850750000001 530.6106725, 100.09850750000001 530.6106725, 134.64578 546.5555674999999, 134.64578 546.5555674999999, 152.8938265 533.4453205, 152.8938265 533.4453205, 166.0040735 546.5555674999999, 166.0040735 546.5555674999999, 185.13794750000002 530.6106725, 185.13794750000002 530.6106725, 234.74428749999998 488.97677999999996, 234.74428749999998 488.97677999999996, 218.79939249999998 468.7799129999999, 218.79939249999998 468.7799129999999, 201.08284249999997 474.09487799999994, 201.08284249999997 474.09487799999994, 189.38991949999996 468.7799129999999, 189.38991949999996 468.7799129999999, 177.69699649999998 454.25234199999994, 177.69699649999998 454.25234199999994, 189.38991949999996 448.9373769999999, 189.38991949999996 448.9373769999999, 201.08284249999997 454.25234199999994, 201.08284249999997 454.25234199999994, 218.79939249999998 433.16964749999994, 218.79939249999998 433.16964749999994, 234.74428749999998 396.85071999999997, 234.74428749999998 396.85071999999997, 218.79939249999998 362.30344749999995, 218.79939249999998 362.30344749999995, 234.74428749999998 325.98452, 234.74428749999998 325.98452, 218.79939249999998 291.4372475, 218.79939249999998 291.4372475, 234.74428749999998 255.11831999999998, 234.74428749999998 255.11831999999998, 218.79939249999998 220.5710475, 218.79939249999998 220.5710475, 234.74428749999998 184.25212, 234.74428749999998 184.25212, 218.79939249999998 149.7048475, 218.79939249999998 149.7048475, 234.74428749999998 113.38592, 234.74428749999998 113.38592, 218.79939249999998 93.189053, 218.79939249999998 93.189053, 201.08284249999997 98.504018, 201.08284249999997 98.504018, 189.38991949999996 93.189053, 189.38991949999996 93.189053, 177.69699649999998 78.661482, 177.69699649999998 78.661482, 189.38991949999996 73.346517, 189.38991949999996 73.346517, 201.08284249999997 78.661482, 201.08284249999997 78.661482, 218.79939249999998 57.5787875, 218.79939249999998 57.5787875, 234.74428749999998 15.944894999999999, 234.7442875 15.944894999999999, 185.13794750000002 0, 185.13794750000002 0, 166.0040735 13.110247000000001, 166.0040735 13.110247000000001, 152.8938265 0, 152.8938265 0, 134.64578 15.944894999999999, 134.64578 15.944894999999999, 100.09850750000001 0, 100.09850750000001 0, 80.96463350000002 13.110247000000001, 80.96463350000002 13.110247000000001, 67.8543865 0, 67.8543865 0, 49.60634 15.944894999999999, 49.60634 "/> 
</g>
<!-- Left--> 
<g transform="translate(1115.6111535, 22.5000185) " > 
<polygon style="stroke:#000000; fill:none; stroke-width:0.000354331" points="0, 15.944894999999999 51.377995, 15.944894999999999 51.377995, 0 70.51186899999999, 0 70.51186899999999, 13.110247000000001 83.622116, 13.110247000000001 83.622116, 0 103.6418175, 0 103.6418175, 15.944894999999999 138.18909, 15.944894999999999 138.18909, 0 174.5080175, 0 174.5080175, 15.944894999999999 209.05528999999999, 15.944894999999999 209.05528999999999, 0 228.18916399999998, 0 228.18916399999998, 13.110247000000001 241.299411, 13.110247000000001 241.299411, 0 261.31911249999996, 0 261.31911249999996, 15.944894999999999 312.6971075, 15.944894999999999 312.6971075, 50.4921675 296.75221250000004, 50.4921675 296.75221250000004, 68.03155200000002 279.03566250000006, 68.03155200000002 279.03566250000006, 62.71658700000002 267.34273950000005, 62.71658700000002 267.34273950000005, 68.03155200000002 255.64981650000004, 68.03155200000002 255.64981650000004, 82.55912300000001 267.34273950000005, 82.55912300000001 267.34273950000005, 87.87408800000001 279.03566250000006, 87.87408800000001 279.03566250000006, 82.55912300000001 296.75221250000004, 82.55912300000001 296.75221250000004, 99.21268 312.6971075, 99.21268 312.6971075, 135.5316075 296.75221250000004, 135.5316075 296.75221250000004, 153.070992 279.03566250000006, 153.070992 279.03566250000006, 147.756027 267.34273950000005, 147.756027 267.34273950000005, 153.070992 255.64981650000004, 153.070992 255.64981650000004, 167.598563 267.34273950000005, 167.598563 267.34273950000005, 172.913528 279.03566250000006, 172.913528 279.03566250000006, 167.598563 296.75221250000004, 167.598563 296.75221250000004, 184.25212000000002 312.6971075, 184.25212000000002 312.6971075, 218.79939249999998 261.31911249999996, 218.79939249999998 261.31911249999996, 234.74428749999998 241.299411, 234.74428749999998 241.299411, 221.63404049999997 228.18916399999998, 221.63404049999997 228.18916399999998, 234.74428749999998 209.05528999999999, 234.74428749999998 209.05528999999999, 218.79939249999998 174.5080175, 218.79939249999998 174.5080175, 234.74428749999998 138.18909, 234.74428749999998 138.18909, 218.79939249999998 103.6418175, 218.79939249999998 103.6418175, 234.74428749999998 83.622116, 234.74428749999998 83.622116, 221.63404049999997 70.51186899999999, 221.63404049999997 70.51186899999999, 234.74428749999998 51.377995, 234.74428749999998 51.377995, 218.79939249999998 0, 218.7993925 0, 184.25212000000002 15.944894999999999, 184.25212000000002 15.944894999999999, 167.598563 33.661445, 167.598563 33.661445, 172.913528 45.35436800000001, 172.913528 45.35436800000001, 167.598563 57.047291, 167.598563 57.047291, 153.070992 45.35436800000001, 153.070992 45.35436800000001, 147.756027 33.661445, 147.756027 33.661445, 153.070992 15.944894999999999, 153.070992 15.944894999999999, 135.5316075 0, 135.5316075 0, 99.21268 15.944894999999999, 99.21268 15.944894999999999, 82.55912300000001 33.661445, 82.55912300000001 33.661445, 87.87408800000001 45.35436800000001, 87.87408800000001 45.35436800000001, 82.55912300000001 57.047291, 82.55912300000001 57.047291, 68.03155200000002 45.35436800000001, 68.03155200000002 45.35436800000001, 62.71658700000002 33.661445, 62.71658700000002 33.661445, 68.03155200000002 15.944894999999999, 68.03155200000002 15.944894999999999, 50.4921675 0, 50.4921675 "/> 
</g>
<!-- Right--> 
<g transform="translate(1115.6111535, 257.244306) " > 
<polygon style="stroke:#000000; fill:none; stroke-width:0.000354331" points="0, 15.944894999999999 51.377995, 15.944894999999999 51.377995, 0 70.51186899999999, 0 70.51186899999999, 13.110247000000001 83.622116, 13.110247000000001 83.622116, 0 103.6418175, 0 103.6418175, 15.944894999999999 138.18909, 15.944894999999999 138.18909, 0 174.5080175, 0 174.5080175, 15.944894999999999 209.05528999999999, 15.944894999999999 209.05528999999999, 0 228.18916399999998, 0 228.18916399999998, 13.110247000000001 241.299411, 13.110247000000001 241.299411, 0 261.31911249999996, 0 261.31911249999996, 15.944894999999999 312.6971075, 15.944894999999999 312.6971075, 50.4921675 296.75221250000004, 50.4921675 296.75221250000004, 68.03155200000002 279.03566250000006, 68.03155200000002 279.03566250000006, 62.71658700000002 267.34273950000005, 62.71658700000002 267.34273950000005, 68.03155200000002 255.64981650000004, 68.03155200000002 255.64981650000004, 82.55912300000001 267.34273950000005, 82.55912300000001 267.34273950000005, 87.87408800000001 279.03566250000006, 87.87408800000001 279.03566250000006, 82.55912300000001 296.75221250000004, 82.55912300000001 296.75221250000004, 99.21268 312.6971075, 99.21268 312.6971075, 135.5316075 296.75221250000004, 135.5316075 296.75221250000004, 153.070992 279.03566250000006, 153.070992 279.03566250000006, 147.756027 267.34273950000005, 147.756027 267.34273950000005, 153.070992 255.64981650000004, 153.070992 255.64981650000004, 167.598563 267.34273950000005, 167.598563 267.34273950000005, 172.913528 279.03566250000006, 172.913528 279.03566250000006, 167.598563 296.75221250000004, 167.598563 296.75221250000004, 184.25212000000002 312.6971075, 184.25212000000002 312.6971075, 218.79939249999998 261.31911249999996, 218.79939249999998 261.31911249999996, 234.74428749999998 241.299411, 234.74428749999998 241.299411, 221.63404049999997 228.18916399999998, 221.63404049999997 228.18916399999998, 234.74428749999998 209.05528999999999, 234.74428749999998 209.05528999999999, 218.79939249999998 174.5080175, 218.79939249999998 174.5080175, 234.74428749999998 138.18909, 234.74428749999998 138.18909, 218.79939249999998 103.6418175, 218.79939249999998 103.6418175, 234.74428749999998 83.622116, 234.74428749999998 83.622116, 221.63404049999997 70.51186899999999, 221.63404049999997 70.51186899999999, 234.74428749999998 51.377995, 234.74428749999998 51.377995, 218.79939249999998 0, 218.7993925 0, 184.25212000000002 15.944894999999999, 184.25212000000002 15.944894999999999, 167.598563 33.661445, 167.598563 33.661445, 172.913528 45.35436800000001, 172.913528 45.35436800000001, 167.598563 57.047291, 167.598563 57.047291, 153.070992 45.35436800000001, 153.070992 45.35436800000001, 147.756027 33.661445, 147.756027 33.661445, 153.070992 15.944894999999999, 153.070992 15.944894999999999, 135.5316075 0, 135.5316075 0, 99.21268 15.944894999999999, 99.21268 15.944894999999999, 82.55912300000001 33.661445, 82.55912300000001 33.661445, 87.87408800000001 45.35436800000001, 87.87408800000001 45.35436800000001, 82.55912300000001 57.047291, 82.55912300000001 57.047291, 68.03155200000002 45.35436800000001, 68.03155200000002 45.35436800000001, 62.71658700000002 33.661445, 62.71658700000002 33.661445, 68.03155200000002 15.944894999999999, 68.03155200000002 15.944894999999999, 50.4921675 0, 50.4921675 "/> 
</g>
<!-- Top--> 
<g transform="translate(22.5000185, 257.244306) " > 
<polygon style="stroke:#000000; fill:none; stroke-width:0.000354331" points="0, 15.944894999999999 56.69296, 15.944894999999999 56.69296, 0 78.4843165, 0 78.4843165, 13.110247000000001 91.59456349999999, 13.110247000000001 91.59456349999999, 0 114.2717475, 0 114.2717475, 15.944894999999999 148.81902, 15.944894999999999 148.81902, 0 185.1379475, 0 185.1379475, 15.944894999999999 219.68522, 15.944894999999999 219.68522, 0 256.0041475, 0 256.0041475, 15.944894999999999 290.55142, 15.944894999999999 290.55142, 0 326.8703475, 0 326.8703475, 15.944894999999999 361.41761999999994, 15.944894999999999 361.41761999999994, 0 397.7365475, 0 397.7365475, 15.944894999999999 432.28381999999993, 15.944894999999999 432.28381999999993, 0 454.07517649999994, 0 454.07517649999994, 13.110247000000001 467.1854234999999, 13.110247000000001 467.1854234999999, 0 489.86260749999997, 0 489.86260749999997, 15.944894999999999 546.5555674999999, 15.944894999999999 546.5555674999999, 52.263822499999996 530.6106725, 52.263822499999996 530.6106725, 70.6890345 512.8941225, 70.6890345 512.8941225, 65.3740695 501.2011995, 65.3740695 501.2011995, 70.6890345 489.50827649999997, 70.6890345 489.50827649999997, 85.2166055 501.2011995, 85.2166055 501.2011995, 90.5315705 512.8941225, 90.5315705 512.8941225, 85.2166055 530.6106725, 85.2166055 530.6106725, 102.75599 546.5555674999999, 102.75599 546.5555674999999, 139.0749175 530.6106725, 139.0749175 530.6106725, 173.62219 546.5555674999999, 173.62219 546.5555674999999, 209.9411175 530.6106725, 209.9411175 530.6106725, 228.36632949999998 512.8941225, 228.36632949999998 512.8941225, 223.05136449999998 501.2011995, 223.05136449999998 501.2011995, 228.36632949999998 489.50827649999997, 228.36632949999998 489.50827649999997, 242.8939005 501.2011995, 242.8939005 501.2011995, 248.2088655 512.8941225, 248.2088655 512.8941225, 242.8939005 530.6106725, 242.8939005 530.6106725, 260.43328499999996 546.5555674999999, 260.43328499999996 546.5555674999999, 296.75221250000004 489.86260749999997, 296.75221250000004 489.86260749999997, 312.6971075 467.1854234999999, 312.6971075 467.1854234999999, 299.5868605 454.07517649999994, 299.5868605 454.07517649999994, 312.6971075 432.28381999999993, 312.6971075 432.28381999999993, 296.75221250000004 397.7365475, 296.75221250000004 397.7365475, 312.6971075 361.41761999999994, 312.6971075 361.41761999999994, 296.75221250000004 326.8703475, 296.75221250000004 326.8703475, 312.6971075 290.55142, 312.6971075 290.55142, 296.75221250000004 256.0041475, 296.75221250000004 256.0041475, 312.6971075 219.68522, 312.6971075 219.68522, 296.75221250000004 185.1379475, 296.75221250000004 185.1379475, 312.6971075 148.81902, 312.6971075 148.81902, 296.75221250000004 114.2717475, 296.75221250000004 114.2717475, 312.6971075 91.59456349999999, 312.6971075 91.59456349999999, 299.5868605 78.4843165, 299.5868605 78.4843165, 312.6971075 56.69296, 312.6971075 56.69296, 296.75221250000004 0, 296.75221250000004 0, 260.43328499999996 15.944894999999999, 260.43328499999996 15.944894999999999, 242.8939005 33.661445, 242.8939005 33.661445, 248.2088655 45.35436800000001, 248.2088655 45.35436800000001, 242.8939005 57.047291, 242.8939005 57.047291, 228.36632949999998 45.35436800000001, 228.36632949999998 45.35436800000001, 223.05136449999998 33.661445, 223.05136449999998 33.661445, 228.36632949999998 15.944894999999999, 228.36632949999998 15.944894999999999, 209.9411175 0, 209.9411175 0, 173.62219 15.944894999999999, 173.62219 15.944894999999999, 139.0749175 0, 139.0749175 0, 102.75599 15.944894999999999, 102.75599 15.944894999999999, 85.2166055 33.661445, 85.2166055 33.661445, 90.5315705 45.35436800000001, 90.5315705 45.35436800000001, 85.2166055 57.047291, 85.2166055 57.047291, 70.6890345 45.35436800000001, 70.6890345 45.35436800000001, 65.3740695 33.661445, 65.3740695 33.661445, 70.6890345 15.944894999999999, 70.6890345 15.944894999999999, 52.263822499999996 0, 52.263822499999996 "/> 
</g>
<!-- Bottom--> 
<g transform="translate(569.055586, 257.244306) " > 
<polygon style="stroke:#000000; fill:none; stroke-width:0.000354331" points="0, 15.944894999999999 56.69296, 15.944894999999999 56.69296, 0 78.4843165, 0 78.4843165, 13.110247000000001 91.59456349999999, 13.110247000000001 91.59456349999999, 0 114.2717475, 0 114.2717475, 15.944894999999999 148.81902, 15.944894999999999 148.81902, 0 185.1379475, 0 185.1379475, 15.944894999999999 219.68522, 15.944894999999999 219.68522, 0 256.0041475, 0 256.0041475, 15.944894999999999 290.55142, 15.944894999999999 290.55142, 0 326.8703475, 0 326.8703475, 15.944894999999999 361.41761999999994, 15.944894999999999 361.41761999999994, 0 397.7365475, 0 397.7365475, 15.944894999999999 432.28381999999993, 15.944894999999999 432.28381999999993, 0 454.07517649999994, 0 454.07517649999994, 13.110247000000001 467.1854234999999, 13.110247000000001 467.1854234999999, 0 489.86260749999997, 0 489.86260749999997, 15.944894999999999 546.5555674999999, 15.944894999999999 546.5555674999999, 52.263822499999996 530.6106725, 52.263822499999996 530.6106725, 70.6890345 512.8941225, 70.6890345 512.8941225, 65.3740695 501.2011995, 65.3740695 501.2011995, 70.6890345 489.50827649999997, 70.6890345 489.50827649999997, 85.2166055 501.2011995, 85.2166055 501.2011995, 90.5315705 512.8941225, 90.5315705 512.8941225, 85.2166055 530.6106725, 85.2166055 530.6106725, 102.75599 546.5555674999999, 102.75599 546.5555674999999, 139.0749175 530.6106725, 139.0749175 530.6106725, 173.62219 546.5555674999999, 173.62219 546.5555674999999, 209.9411175 530.6106725, 209.9411175 530.6106725, 228.36632949999998 512.8941225, 228.36632949999998 512.8941225, 223.05136449999998 501.2011995, 223.05136449999998 501.2011995, 228.36632949999998 489.50827649999997, 228.36632949999998 489.50827649999997, 242.8939005 501.2011995, 242.8939005 501.2011995, 248.2088655 512.8941225, 248.2088655 512.8941225, 242.8939005 530.6106725, 242.8939005 530.6106725, 260.43328499999996 546.5555674999999, 260.43328499999996 546.5555674999999, 296.75221250000004 489.86260749999997, 296.75221250000004 489.86260749999997, 312.6971075 467.1854234999999, 312.6971075 467.1854234999999, 299.5868605 454.07517649999994, 299.5868605 454.07517649999994, 312.6971075 432.28381999999993, 312.6971075 432.28381999999993, 296.75221250000004 397.7365475, 296.75221250000004 397.7365475, 312.6971075 361.41761999999994, 312.6971075 361.41761999999994, 296.75221250000004 326.8703475, 296.75221250000004 326.8703475, 312.6971075 290.55142, 312.6971075 290.55142, 296.75221250000004 256.0041475, 296.75221250000004 256.0041475, 312.6971075 219.68522, 312.6971075 219.68522, 296.75221250000004 185.1379475, 296.75221250000004 185.1379475, 312.6971075 148.81902, 312.6971075 148.81902, 296.75221250000004 114.2717475, 296.75221250000004 114.2717475, 312.6971075 91.59456349999999, 312.6971075 91.59456349999999, 299.5868605 78.4843165, 299.5868605 78.4843165, 312.6971075 56.69296, 312.6971075 56.69296, 296.75221250000004 0, 296.75221250000004 0, 260.43328499999996 15.944894999999999, 260.43328499999996 15.944894999999999, 242.8939005 33.661445, 242.8939005 33.661445, 248.2088655 45.35436800000001, 248.2088655 45.35436800000001, 242.8939005 57.047291, 242.8939005 57.047291, 228.36632949999998 45.35436800000001, 228.36632949999998 45.35436800000001, 223.05136449999998 33.661445, 223.05136449999998 33.661445, 228.36632949999998 15.944894999999999, 228.36632949999998 15.944894999999999, 209.9411175 0, 209.9411175 0, 173.62219 15.944894999999999, 173.62219 15.944894999999999, 139.0749175 0, 139.0749175 0, 102.75599 15.944894999999999, 102.75599 15.944894999999999, 85.2166055 33.661445, 85.2166055 33.661445, 90.5315705 45.35436800000001, 90.5315705 45.35436800000001, 85.2166055 57.047291, 85.2166055 57.047291, 70.6890345 45.35436800000001, 70.6890345 45.35436800000001, 65.3740695 33.661445, 65.3740695 33.661445, 70.6890345 15.944894999999999, 70.6890345 15.944894999999999, 52.263822499999996 0, 52.263822499999996 "/> 
</g></svg>